<svg width="100" height="100" viewBox="0 0 100 100" xmlns="http://www.w3.org/2000/svg">
  <pattern id="medical" width="100" height="100" patternUnits="userSpaceOnUse">
    <path d="M20,20 L25,20 L25,15 L30,15 L30,20 L35,20 L35,25 L30,25 L30,30 L25,30 L25,25 L20,25 Z" fill="none" stroke="currentColor" stroke-width="0.8" opacity="0.15"/>
    <circle cx="70" cy="30" r="5" fill="none" stroke="currentColor" stroke-width="0.8" opacity="0.15"/>
    <circle cx="30" cy="70" r="5" fill="none" stroke="currentColor" stroke-width="0.8" opacity="0.15"/>
    <path d="M60,60 L65,60 L65,70 L75,70 L75,75 L65,75 L65,85 L60,85 L60,75 L50,75 L50,70 L60,70 Z" fill="none" stroke="currentColor" stroke-width="0.8" opacity="0.15"/>
  </pattern>
  <rect width="100" height="100" fill="url(#medical)" />
</svg> 